<mxfile host="Electron" modified="2023-09-30T15:09:39.250Z" agent="Mozilla/5.0 (Windows NT 10.0; Win64; x64) AppleWebKit/537.36 (KHTML, like Gecko) draw.io/22.0.0 Chrome/114.0.5735.289 Electron/25.8.3 Safari/537.36" etag="OCySVFFcdGuoWa-xgxLb" version="22.0.0" type="device">
  <diagram name="Page-1" id="xTxcdvkdqnFiRvybYxhy">
    <mxGraphModel dx="1098" dy="820" grid="1" gridSize="10" guides="1" tooltips="1" connect="1" arrows="1" fold="1" page="1" pageScale="1" pageWidth="850" pageHeight="1100" math="0" shadow="0">
      <root>
        <mxCell id="0" />
        <mxCell id="1" parent="0" />
        <mxCell id="TLWEopVgI82JeDsdz9n4-5" value="" style="rounded=0;whiteSpace=wrap;html=1;container=1;movable=0;resizable=0;rotatable=0;deletable=0;editable=0;locked=1;connectable=0;" vertex="1" parent="1">
          <mxGeometry x="120" y="250" width="550" height="380" as="geometry" />
        </mxCell>
        <mxCell id="TLWEopVgI82JeDsdz9n4-1" value="RDS Postgres" style="outlineConnect=0;dashed=0;verticalLabelPosition=bottom;verticalAlign=top;align=center;html=1;shape=mxgraph.aws3.rds;fillColor=#2E73B8;gradientColor=none;" vertex="1" parent="1">
          <mxGeometry x="470" y="490" width="72" height="81" as="geometry" />
        </mxCell>
        <mxCell id="TLWEopVgI82JeDsdz9n4-2" value="Nodejs on Elastic Beanstalk" style="outlineConnect=0;dashed=0;verticalLabelPosition=bottom;verticalAlign=top;align=center;html=1;shape=mxgraph.aws3.elastic_beanstalk;fillColor=#F58534;gradientColor=none;" vertex="1" parent="1">
          <mxGeometry x="320" y="478" width="67.5" height="93" as="geometry" />
        </mxCell>
        <mxCell id="TLWEopVgI82JeDsdz9n4-6" style="edgeStyle=orthogonalEdgeStyle;rounded=0;orthogonalLoop=1;jettySize=auto;html=1;endArrow=classic;endFill=1;startArrow=classic;startFill=1;snapToPoint=1;entryX=0.5;entryY=0;entryDx=0;entryDy=0;entryPerimeter=0;" edge="1" parent="1" source="TLWEopVgI82JeDsdz9n4-3" target="TLWEopVgI82JeDsdz9n4-2">
          <mxGeometry relative="1" as="geometry">
            <mxPoint x="350" y="420" as="sourcePoint" />
            <mxPoint x="354" y="460" as="targetPoint" />
          </mxGeometry>
        </mxCell>
        <mxCell id="TLWEopVgI82JeDsdz9n4-3" value="Angular on S3" style="outlineConnect=0;dashed=0;verticalLabelPosition=bottom;verticalAlign=top;align=center;html=1;shape=mxgraph.aws3.s3;fillColor=#E05243;gradientColor=none;" vertex="1" parent="1">
          <mxGeometry x="315.5" y="290" width="76.5" height="93" as="geometry" />
        </mxCell>
        <mxCell id="TLWEopVgI82JeDsdz9n4-4" value="" style="outlineConnect=0;dashed=0;verticalLabelPosition=bottom;verticalAlign=top;align=center;html=1;shape=mxgraph.aws3.cloud_2;fillColor=#F58534;gradientColor=none;" vertex="1" parent="1">
          <mxGeometry x="90" y="215" width="75" height="75" as="geometry" />
        </mxCell>
        <mxCell id="TLWEopVgI82JeDsdz9n4-8" style="edgeStyle=orthogonalEdgeStyle;rounded=0;orthogonalLoop=1;jettySize=auto;html=1;entryX=0;entryY=0.5;entryDx=0;entryDy=0;entryPerimeter=0;startArrow=classic;startFill=1;" edge="1" parent="1" target="TLWEopVgI82JeDsdz9n4-1">
          <mxGeometry relative="1" as="geometry">
            <mxPoint x="390" y="530" as="sourcePoint" />
          </mxGeometry>
        </mxCell>
        <mxCell id="TLWEopVgI82JeDsdz9n4-10" style="edgeStyle=orthogonalEdgeStyle;rounded=0;orthogonalLoop=1;jettySize=auto;html=1;startArrow=classic;startFill=1;" edge="1" parent="1" source="TLWEopVgI82JeDsdz9n4-9" target="TLWEopVgI82JeDsdz9n4-3">
          <mxGeometry relative="1" as="geometry" />
        </mxCell>
        <mxCell id="TLWEopVgI82JeDsdz9n4-9" value="User" style="sketch=0;outlineConnect=0;fontColor=#232F3E;gradientColor=none;strokeColor=#232F3E;fillColor=#ffffff;dashed=0;verticalLabelPosition=bottom;verticalAlign=top;align=center;html=1;fontSize=12;fontStyle=0;aspect=fixed;shape=mxgraph.aws4.resourceIcon;resIcon=mxgraph.aws4.user;" vertex="1" parent="1">
          <mxGeometry x="323.75" y="129" width="60" height="60" as="geometry" />
        </mxCell>
      </root>
    </mxGraphModel>
  </diagram>
</mxfile>
